<svg width="48" height="48" viewBox="0 0 48 48" fill="none" xmlns="http://www.w3.org/2000/svg">
<path d="M11.28 9V12.82H4.5V16.56C4.5 22.82 6.36 26.31 10.83 28.48C12.4918 29.3735 14.0256 30.4868 15.39 31.79C16.4866 32.9597 17.8241 33.8775 19.31 34.48L21 35V39.53H18.42C15.3 39.53 14.25 40.24 14.25 42.35V43.77H33.75V42.5C33.75 40.43 32.47 39.5 29.51 39.5H27V35L28.72 34.49C30.2081 33.8869 31.546 32.9653 32.64 31.79C34.0634 30.4333 35.6567 29.267 37.38 28.32C38.7181 27.6761 39.9131 26.7697 40.894 25.6548C41.8749 24.5399 42.6217 23.2392 43.09 21.83C43.4083 20.0852 43.5557 18.3134 43.53 16.54V12.83H36.72V9H11.28ZM24 15.37L26.05 19.61H30.99L27.12 23.18L28.23 27.74L24 25.47L19.77 27.77L20.88 23.21L17 19.64H21.95L24 15.37ZM8.06 16.64H11.22V24.52C10.89 24.72 9.86 23.52 9.11 22.15C8.6842 21.1011 8.41141 19.9965 8.3 18.87L8.06 16.64ZM36.78 16.64H40.22L39.93 18.84C39.8618 20.6714 39.1255 22.4144 37.86 23.74C37.5623 24.1457 37.1845 24.4861 36.75 24.74L36.78 16.64Z" stroke="#E10B20" stroke-linecap="round" stroke-linejoin="round"/>
</svg>
