<svg width="40" height="40" viewBox="0 0 40 40" fill="none" xmlns="http://www.w3.org/2000/svg">
<path d="M40 17.3751V10.5195L19.9998 2.23926L0 10.5195V17.3751H1.5625V36.5888H0.585938V37.7607H39.4141V36.5888H38.4375V17.3751H40ZM19.4094 36.5888H5.74219V22.9122H9.46539V27.9704H15.6955V22.9122H19.4094V36.5888ZM10.6373 26.7986V22.9122H14.5236V26.7986H10.6373ZM34.2578 36.5888H20.5906V22.9122H24.3045V27.9704H30.5346V22.9122H34.2578V36.5888ZM25.4764 26.7986V22.9122H29.3627V26.7986H25.4764ZM34.2578 21.7404H5.74219V17.3751H34.2578V21.7404ZM37.2656 16.2033V36.5889H35.4297V36.5888V17.3751H36.3477V16.2032H3.65234V17.3751H4.57031V36.5888H2.73438V16.2032H1.17188V11.3026L19.9998 3.50754L38.8281 11.3027V16.2033H37.2656Z" fill="black"/>
<path d="M4.52197 15.2471H14.0532V11.5752H4.52197V15.2471ZM5.69385 12.7471H12.8813V14.0752H5.69385V12.7471Z" fill="black"/>
<path d="M15.2341 15.2471H24.7654V11.5752H15.2341V15.2471ZM16.406 12.7471H23.5935V14.0752H16.406V12.7471Z" fill="black"/>
<path d="M25.9463 15.2471H35.4775V11.5752H25.9463V15.2471ZM27.1182 12.7471H34.3057V14.0752H27.1182V12.7471Z" fill="black"/>
<path d="M26.1711 8.80176H17.7344V9.97363H26.1711V8.80176Z" fill="black"/>
<path d="M16.9531 8.80176H15.7812V9.97363H16.9531V8.80176Z" fill="black"/>
<path d="M15 8.80176H13.8281V9.97363H15V8.80176Z" fill="black"/>
<path d="M18.6328 6.30176H17.4609V7.47363H18.6328V6.30176Z" fill="black"/>
<path d="M22.5391 6.30176H21.3672V7.47363H22.5391V6.30176Z" fill="black"/>
<path d="M20.5859 6.30176H19.4141V7.47363H20.5859V6.30176Z" fill="black"/>
<path d="M18.9062 27.4453H17.7344V28.6172H18.9062V27.4453Z" fill="black"/>
<path d="M18.9062 29.3984H17.7344V30.5703H18.9062V29.3984Z" fill="black"/>
<path d="M18.9062 23.5366H17.7344V26.664H18.9062V23.5366Z" fill="black"/>
<path d="M14.4409 36.222H18.9901V33.0894H14.4409V36.222ZM15.6127 34.2612H17.8181V35.0501H15.6127V34.2612Z" fill="black"/>
<path d="M9.18916 35.0498H6.25635V36.2217H9.18916V35.0498Z" fill="black"/>
<path d="M14.0468 25.3193H11.114V26.4912H14.0468V25.3193Z" fill="black"/>
<path d="M33.7454 27.4453H32.5735V28.6172H33.7454V27.4453Z" fill="black"/>
<path d="M33.7454 23.5366H32.5735V26.664H33.7454V23.5366Z" fill="black"/>
<path d="M33.7454 29.3984H32.5735V30.5703H33.7454V29.3984Z" fill="black"/>
<path d="M29.28 36.222H33.8292V33.0894H29.28V36.222ZM30.4519 34.2612H32.6573V35.0501H30.4519V34.2612Z" fill="black"/>
<path d="M24.0281 35.0498H21.0952V36.2217H24.0281V35.0498Z" fill="black"/>
<path d="M28.8859 25.3193H25.9531V26.4912H28.8859V25.3193Z" fill="black"/>
<path d="M32.5063 17.9937H31.3345V19.1655H32.5063V17.9937Z" fill="black"/>
<path d="M30.5532 17.9937H29.3813V19.1655H30.5532V17.9937Z" fill="black"/>
<path d="M28.5996 17.9937H23.7759V19.1655H28.5996V17.9937Z" fill="black"/>
<path d="M22.2655 17.9937H7.49365V19.1655H22.2655V17.9937Z" fill="black"/>
<path d="M32.5054 19.9346H7.49365V21.1064H32.5054V19.9346Z" fill="black"/>
</svg>
