<svg width="35" height="35" viewBox="0 0 35 35" fill="none" xmlns="http://www.w3.org/2000/svg">
<g clip-path="url(#clip0_23_128)">
<path d="M17.5744 22.9136H16.5261V32.509H17.5744V22.9136Z" fill="black"/>
<path d="M15.4509 27.188H13.8516V28.2363H15.4509V27.188Z" fill="black"/>
<path d="M20.2485 27.188H18.6492V28.2363H20.2485V27.188Z" fill="black"/>
<path d="M7.46338 14.3756H27.1698V9.0625H7.46338V14.3756ZM17.5742 10.1108H26.1216V11.1949H17.5742V10.1108ZM17.5742 12.2432H26.1216V13.3273H17.5742V12.2432ZM8.51169 10.1108H16.5259V11.1949H8.51169V10.1108ZM8.51169 12.2432H16.5259V13.3273H8.51169V12.2432Z" fill="black"/>
<path d="M22.9137 15.4595H11.186V16.5078H22.9137V15.4595Z" fill="black"/>
<path d="M29.1061 4.99385C25.8859 1.77353 21.6042 0 17.0501 0C12.4959 0 8.21417 1.77353 4.99385 4.99385C1.77353 8.21417 0 12.4958 0 17.0501V34.1H34.1V17.0501C34.1 12.4958 32.3265 8.2141 29.1061 4.99385ZM5.73513 5.73513C8.75744 2.71281 12.7758 1.04831 17.0501 1.04831C21.3243 1.04831 25.3427 2.71281 28.365 5.73513C31.2634 8.63356 32.912 12.4482 33.0424 16.5259H31.9586C31.6819 8.54172 25.1005 2.13238 17.0501 2.13238C8.99967 2.13238 2.41824 8.54172 2.14144 16.5259H1.05777C1.18811 12.4482 2.83669 8.63349 5.73513 5.73513ZM27.1877 33.0517H6.91238V22.372H27.1878V33.0517H27.1877ZM6.91238 21.3237V18.6403H7.99645V21.3237H6.91238ZM9.04463 21.3237V18.6403H10.1287V21.3237H9.04463ZM11.1771 21.3237V18.6403H12.2611V21.3237H11.1771ZM13.3094 21.3237V18.6403H14.3935V21.3237H13.3094ZM15.4418 21.3237V18.6403H16.5258V21.3237H15.4418ZM17.5742 21.3237V18.6403H18.6582V21.3237H17.5742ZM19.7065 21.3237V18.6403H20.7906V21.3237H19.7065ZM21.8389 21.3237V18.6403H22.9229V21.3237H21.8389ZM23.9712 21.3237V18.6403H25.0553V21.3237H23.9712ZM27.1877 21.3237H26.1036V18.6403H27.1877V21.3237ZM33.0518 33.0517H28.236V17.5921H5.86407V33.0517H1.04831V17.5742H3.18069V17.05C3.18069 9.40241 9.40241 3.18062 17.0501 3.18062C24.6976 3.18062 30.9194 9.40234 30.9194 17.05V17.5742H33.0518V33.0517H33.0518Z" fill="black"/>
<path d="M19.7154 23.4561H18.6492V24.5044H19.7154V23.4561Z" fill="black"/>
<path d="M21.3145 23.4561H20.2483V24.5044H21.3145V23.4561Z" fill="black"/>
<path d="M22.9141 23.4561H21.8479V24.5044H22.9141V23.4561Z" fill="black"/>
</g>
<defs>
<clipPath id="clip0_23_128">
<rect width="34.1" height="34.1" fill="white"/>
</clipPath>
</defs>
</svg>
