<svg width="40" height="40" viewBox="0 0 40 40" fill="none" xmlns="http://www.w3.org/2000/svg">
<g clip-path="url(#clip0_23_217)">
<path d="M32.2939 2.7465C29.7054 1.50985 26.9339 0.699626 24.0866 0.346436C21.374 -0.00480144 18.6273 -0.00480144 15.9147 0.346436C13.0671 0.6993 10.2952 1.50985 7.70605 2.7465C2.80859 5.1534 0 8.79989 0 12.7465V31.4132C0 31.7813 0.298503 32.0798 0.666667 32.0798H39.3333C39.7015 32.0798 40 31.7813 40 31.4132V12.7465C40 8.79989 37.1914 5.1534 32.2939 2.7465ZM16.6667 1.59578C18.8822 1.35262 21.1178 1.35262 23.3333 1.59578V12.0798H16.6667V1.59578ZM19.3333 13.4132V14.7465H12V13.4132H19.3333ZM7.33333 4.44605V12.0798H1.36523C1.64811 9.16577 3.77539 6.44735 7.33333 4.44605ZM10.6667 30.7465H1.33333V29.4132H10.6667V30.7465ZM10.6667 28.0798H1.33333V26.7465H10.6667V28.0798ZM10.6667 25.4132H1.33333V24.0798H10.6667V25.4132ZM10.6667 22.7465H1.33333V21.4132H10.6667V22.7465ZM10.6667 20.0798H1.33333V18.7465H10.6667V20.0798ZM10.6667 17.4132H1.33333V16.0798H10.6667V17.4132ZM10.6667 14.7465H1.33333V13.4132H10.6667V14.7465ZM8.66667 12.0798V3.76115C10.7865 2.79403 13.0299 2.12541 15.3333 1.7745V12.0798H8.66667ZM28 30.7465H12V16.0798H28V30.7465ZM28 14.7465H20.6667V13.4132H28V14.7465ZM24.6667 12.0798V1.7745C26.9701 2.12541 29.2135 2.79403 31.3333 3.76115V12.0798H24.6667ZM38.6667 30.7465H29.3333V29.4132H38.6667V30.7465ZM38.6667 28.0798H29.3333V26.7465H38.6667V28.0798ZM38.6667 25.4132H29.3333V24.0798H38.6667V25.4132ZM38.6667 22.7465H29.3333V21.4132H38.6667V22.7465ZM38.6667 20.0798H29.3333V18.7465H38.6667V20.0798ZM38.6667 17.4132H29.3333V16.0798H38.6667V17.4132ZM38.6667 14.7465H29.3333V13.4132H38.6667V14.7465ZM32.6667 12.0798V4.44605C36.2246 6.44605 38.3519 9.16577 38.6348 12.0798H32.6667Z" fill="black"/>
<path d="M21.3334 3.41325C21.3334 3.04508 21.0349 2.74658 20.6667 2.74658H19.3334C18.9653 2.74658 18.6667 3.04508 18.6667 3.41325C18.6667 3.78141 18.9653 4.07992 19.3334 4.07992H20.6667C21.0349 4.07992 21.3334 3.78141 21.3334 3.41325Z" fill="black"/>
<path d="M28.6667 5.41309H27.3334C26.9653 5.41309 26.6667 5.71159 26.6667 6.07975C26.6667 6.44792 26.9653 6.74642 27.3334 6.74642H28.6667C29.0349 6.74642 29.3334 6.44792 29.3334 6.07975C29.3334 5.71159 29.0349 5.41309 28.6667 5.41309Z" fill="black"/>
<path d="M34.6667 9.41309C34.2985 9.41309 34 9.71159 34 10.0798C34 10.4479 34.2985 10.7464 34.6667 10.7464H36C36.3682 10.7464 36.6667 10.4479 36.6667 10.0798C36.6667 9.71159 36.3682 9.41309 36 9.41309H34.6667Z" fill="black"/>
<path d="M12.6667 5.41309H11.3334C10.9653 5.41309 10.6667 5.71159 10.6667 6.07975C10.6667 6.44792 10.9653 6.74642 11.3334 6.74642H12.6667C13.0349 6.74642 13.3334 6.44792 13.3334 6.07975C13.3334 5.71159 13.0349 5.41309 12.6667 5.41309Z" fill="black"/>
<path d="M5.33325 9.41309H3.99992C3.63175 9.41309 3.33325 9.71159 3.33325 10.0798C3.33325 10.4479 3.63175 10.7464 3.99992 10.7464H5.33325C5.70142 10.7464 5.99992 10.4479 5.99992 10.0798C5.99992 9.71159 5.70142 9.41309 5.33325 9.41309Z" fill="black"/>
</g>
<defs>
<clipPath id="clip0_23_217">
<rect width="40" height="40" fill="white"/>
</clipPath>
</defs>
</svg>
