<svg width="20" height="17" viewBox="0 0 20 17" fill="#2F7B80" xmlns="http://www.w3.org/2000/svg">
<path d="M8.0002 17H4.0002C3.71686 17 3.4792 16.904 3.2872 16.712C3.0952 16.52 2.99953 16.2827 3.0002 16V9.00001H1.3002C1.06686 9.00001 0.908529 8.89168 0.825195 8.67501C0.741862 8.45835 0.791862 8.27501 0.975195 8.12501L9.3252 0.600012C9.50853 0.416679 9.73353 0.325012 10.0002 0.325012C10.2669 0.325012 10.4919 0.416679 10.6752 0.600012L14.0002 3.60001V2.00001C14.0002 1.71668 14.0962 1.47901 14.2882 1.28701C14.4802 1.09501 14.7175 0.999345 15.0002 1.00001H16.0002C16.2835 1.00001 16.5212 1.09601 16.7132 1.28801C16.9052 1.48001 17.0009 1.71735 17.0002 2.00001V6.30001L19.0252 8.12501C19.2085 8.27501 19.2585 8.45835 19.1752 8.67501C19.0919 8.89168 18.9335 9.00001 18.7002 9.00001H17.0002V16C17.0002 16.2833 16.9042 16.521 16.7122 16.713C16.5202 16.905 16.2829 17.0007 16.0002 17H12.0002V12C12.0002 11.7167 11.9042 11.479 11.7122 11.287C11.5202 11.095 11.2829 10.9993 11.0002 11H9.0002C8.71686 11 8.4792 11.096 8.2872 11.288C8.0952 11.48 7.99953 11.7173 8.0002 12V17ZM8.0002 7.02501H12.0002C12.0002 6.49168 11.8002 6.05401 11.4002 5.71201C11.0002 5.37001 10.5335 5.19935 10.0002 5.20001C9.46686 5.20001 9.0002 5.37101 8.6002 5.71301C8.2002 6.05501 8.0002 6.49235 8.0002 7.02501Z" fill="#2F7B80"/>
</svg>
