<svg width="22" height="18" viewBox="0 0 22 18" fill="none" xmlns="http://www.w3.org/2000/svg">
<path d="M2.16667 17.3333C1.57084 17.3333 1.06059 17.121 0.635918 16.6963C0.211252 16.2717 -0.000720383 15.7618 1.83928e-06 15.1667V2.16667C1.83928e-06 1.57084 0.212335 1.06059 0.637002 0.635918C1.06167 0.211252 1.57156 -0.000720383 2.16667 1.83928e-06H19.5C20.0958 1.83928e-06 20.6061 0.212335 21.0308 0.637002C21.4554 1.06167 21.6674 1.57156 21.6667 2.16667V15.1667C21.6667 15.7625 21.4543 16.2728 21.0297 16.6974C20.605 17.1221 20.0951 17.3341 19.5 17.3333H2.16667ZM10.8333 9.56042C10.9236 9.56042 11.0186 9.5467 11.1183 9.51925C11.2179 9.49181 11.3125 9.45136 11.4021 9.39792L19.0667 4.60417C19.2111 4.51389 19.3194 4.40086 19.3917 4.26509C19.4639 4.12931 19.5 3.98053 19.5 3.81875C19.5 3.45764 19.3465 3.18681 19.0396 3.00625C18.7326 2.8257 18.4167 2.83472 18.0917 3.03334L10.8333 7.58334L3.575 3.03334C3.25 2.83472 2.93403 2.83039 2.62709 3.02034C2.32014 3.21028 2.16667 3.47642 2.16667 3.81875C2.16667 3.99931 2.20278 4.15747 2.275 4.29325C2.34722 4.42903 2.45556 4.53267 2.6 4.60417L10.2646 9.39792C10.3549 9.45209 10.4498 9.49289 10.5495 9.52034C10.6492 9.54778 10.7438 9.56114 10.8333 9.56042Z" fill="#E10B20"/>
</svg>
