<?xml version="1.0" encoding="UTF-8"?>
<!DOCTYPE svg PUBLIC "-//W3C//DTD SVG 1.1//EN" "http://www.w3.org/Graphics/SVG/1.1/DTD/svg11.dtd">
<svg xmlns="http://www.w3.org/2000/svg" version="1.1" width="253px" height="253px" style="shape-rendering:geometricPrecision; text-rendering:geometricPrecision; image-rendering:optimizeQuality; fill-rule:evenodd; clip-rule:evenodd" xmlns:xlink="http://www.w3.org/1999/xlink">
<g><path style="opacity:1" fill="#fe041a" d="M -0.5,-0.5 C 83.8333,-0.5 168.167,-0.5 252.5,-0.5C 252.5,83.8333 252.5,168.167 252.5,252.5C 168.167,252.5 83.8333,252.5 -0.5,252.5C -0.5,168.167 -0.5,83.8333 -0.5,-0.5 Z"/></g>
<g><path style="opacity:1" fill="#fdfaf9" d="M 131.5,56.5 C 145.833,57.1667 160.167,57.8333 174.5,58.5C 162.242,63.0305 149.909,67.3638 137.5,71.5C 138.771,77.5503 140.771,83.3837 143.5,89C 143.167,89.5 142.833,90 142.5,90.5C 139.376,88.4234 136.042,87.2567 132.5,87C 141.82,119.983 162.153,143.316 193.5,157C 210.781,164.32 228.781,168.487 247.5,169.5C 219.264,170.828 190.931,170.828 162.5,169.5C 152.428,155.359 144.428,140.026 138.5,123.5C 134.475,110.754 131.475,97.7538 129.5,84.5C 129.232,97.8895 131.232,110.889 135.5,123.5C 139.579,140.153 146.245,155.653 155.5,170C 146.173,170.5 136.839,170.666 127.5,170.5C 127.831,142.662 127.498,114.995 126.5,87.5C 126.5,85.8333 126.5,84.1667 126.5,82.5C 124.901,82.2322 123.568,82.5655 122.5,83.5C 121.502,112.329 121.169,141.329 121.5,170.5C 112.143,170.832 102.81,170.498 93.5,169.5C 95.5113,166.139 97.5113,162.806 99.5,159.5C 99.5,159.167 99.5,158.833 99.5,158.5C 111.688,135.278 118.355,110.611 119.5,84.5C 116.069,109.462 108.069,132.795 95.5,154.5C 91.8206,159.871 88.1539,165.204 84.5,170.5C 56.6616,170.831 28.995,170.498 1.5,169.5C 32.3965,167.708 60.0631,157.541 84.5,139C 100.001,124.67 110.667,107.337 116.5,87C 112.5,88 108.5,89 104.5,90C 107.526,84.0869 109.86,77.9202 111.5,71.5C 98.7893,67.4837 86.1226,63.1503 73.5,58.5C 87.8333,57.8333 102.167,57.1667 116.5,56.5C 118.691,49.0942 121.191,41.7608 124,34.5C 126.802,41.6978 129.302,49.0311 131.5,56.5 Z"/></g>
<g><path style="opacity:1" fill="#f75b6a" d="M 116.5,56.5 C 102.167,57.1667 87.8333,57.8333 73.5,58.5C 72.9569,58.44 72.6236,58.1067 72.5,57.5C 87.1515,56.5007 101.818,56.1674 116.5,56.5 Z"/></g>
<g><path style="opacity:1" fill="#f86170" d="M 131.5,56.5 C 146.182,56.1674 160.848,56.5007 175.5,57.5C 175.376,58.1067 175.043,58.44 174.5,58.5C 160.167,57.8333 145.833,57.1667 131.5,56.5 Z"/></g>
<g><path style="opacity:1" fill="#fd041b" d="M 126.5,87.5 C 126.5,114.167 126.5,140.833 126.5,167.5C 125.167,167.5 123.833,167.5 122.5,167.5C 122.5,139.5 122.5,111.5 122.5,83.5C 123.568,82.5655 124.901,82.2322 126.5,82.5C 126.5,84.1667 126.5,85.8333 126.5,87.5 Z"/></g>
<g><path style="opacity:1" fill="#fb3339" d="M 138.5,123.5 C 137.034,122.653 136.2,121.32 136,119.5C 135.51,120.793 135.343,122.127 135.5,123.5C 131.232,110.889 129.232,97.8895 129.5,84.5C 131.475,97.7538 134.475,110.754 138.5,123.5 Z"/></g>
<g><path style="opacity:1" fill="#fb1f2b" d="M 99.5,158.5 C 99.628,156.345 99.128,154.345 98,152.5C 97.5831,153.756 96.7498,154.423 95.5,154.5C 108.069,132.795 116.069,109.462 119.5,84.5C 118.355,110.611 111.688,135.278 99.5,158.5 Z"/></g>
<g><path style="opacity:1" fill="#fc2c4a" d="M 1.5,169.5 C 28.995,170.498 56.6616,170.831 84.5,170.5C 56.6638,171.829 28.6638,171.829 0.5,170.5C 0.62358,169.893 0.956913,169.56 1.5,169.5 Z"/></g>
<g><path style="opacity:1" fill="#fc314c" d="M 162.5,169.5 C 190.931,170.828 219.264,170.828 247.5,169.5C 248.376,169.369 249.043,169.702 249.5,170.5C 222.175,171.5 194.841,171.833 167.5,171.5C 165.219,171.923 163.552,171.256 162.5,169.5 Z"/></g>
<g><path style="opacity:1" fill="#fd262d" d="M 122.5,83.5 C 122.5,111.5 122.5,139.5 122.5,167.5C 123.833,167.5 125.167,167.5 126.5,167.5C 126.5,140.833 126.5,114.167 126.5,87.5C 127.498,114.995 127.831,142.662 127.5,170.5C 136.839,170.666 146.173,170.5 155.5,170C 146.245,155.653 139.579,140.153 135.5,123.5C 135.343,122.127 135.51,120.793 136,119.5C 136.2,121.32 137.034,122.653 138.5,123.5C 144.428,140.026 152.428,155.359 162.5,169.5C 163.552,171.256 165.219,171.923 167.5,171.5C 191.349,172.147 215.349,172.98 239.5,174C 237.5,174.333 235.5,174.667 233.5,175C 234.624,175.249 235.624,175.749 236.5,176.5C 236.376,177.107 236.043,177.44 235.5,177.5C 232.976,176.2 230.309,176.2 227.5,177.5C 225.898,181.095 223.898,184.429 221.5,187.5C 219.234,183.966 217.234,180.3 215.5,176.5C 216.416,176.018 217.416,175.685 218.5,175.5C 219.929,177.083 221.429,177.75 223,177.5C 223.483,176.552 223.649,175.552 223.5,174.5C 204.83,174.333 186.164,174.5 167.5,175C 170.365,175.183 173.031,175.683 175.5,176.5C 166.833,176.5 158.167,176.5 149.5,176.5C 149.5,177.833 149.5,179.167 149.5,180.5C 148.59,178.981 147.757,177.315 147,175.5C 146.202,178.711 146.702,181.711 148.5,184.5C 142.102,185.145 135.769,186.145 129.5,187.5C 127.244,188.694 127.578,189.694 130.5,190.5C 130.5,192.167 130.5,193.833 130.5,195.5C 129.71,194.391 129.21,193.058 129,191.5C 128.5,192 128,192.5 127.5,193C 127.13,194.61 127.797,196.11 129.5,197.5C 127.646,199.224 126.312,201.224 125.5,203.5C 125.666,195.826 125.5,188.159 125,180.5C 120.034,175.911 114.2,174.411 107.5,176C 104.804,176.69 102.637,178.19 101,180.5C 100.333,188.833 100.333,197.167 101,205.5C 107.473,210.883 114.64,211.883 122.5,208.5C 122.03,209.693 121.03,210.36 119.5,210.5C 116.86,211.095 114.193,211.428 111.5,211.5C 111.668,214.684 110.334,215.184 107.5,213C 106.167,212.333 106.167,211.667 107.5,211C 104.353,210.054 101.353,208.887 98.5,207.5C 98.7252,202.752 98.2252,198.085 97,193.5C 96.6667,194.5 96.3333,195.5 96,196.5C 95.3292,195.748 94.4959,195.414 93.5,195.5C 95.9767,193.14 96.9767,190.14 96.5,186.5C 96.995,183.052 95.995,180.219 93.5,178C 86.2542,176.609 78.9209,176.109 71.5,176.5C 77.3193,175.672 83.3193,175.172 89.5,175C 90.7649,173.663 91.2649,172.163 91,170.5C 89.3854,172.905 88.7188,172.905 89,170.5C 91.6667,167.167 94.3333,163.833 97,160.5C 97.6708,159.748 98.5041,159.414 99.5,159.5C 97.5113,162.806 95.5113,166.139 93.5,169.5C 102.81,170.498 112.143,170.832 121.5,170.5C 121.169,141.329 121.502,112.329 122.5,83.5 Z"/></g>
<g><path style="opacity:1" fill="#fcf3f2" d="M 71.5,176.5 C 78.9209,176.109 86.2542,176.609 93.5,178C 95.995,180.219 96.995,183.052 96.5,186.5C 96.9767,190.14 95.9767,193.14 93.5,195.5C 89.3642,197.183 85.0309,197.85 80.5,197.5C 80.5,201.5 80.5,205.5 80.5,209.5C 77.5,209.5 74.5,209.5 71.5,209.5C 71.5,198.5 71.5,187.5 71.5,176.5 Z"/></g>
<g><path style="opacity:1" fill="#fcf8f7" d="M 31.5,209.5 C 30.8505,207.565 30.5172,205.565 30.5,203.5C 26.6286,203.185 22.9619,203.518 19.5,204.5C 18.5489,205.919 18.2155,207.585 18.5,209.5C 15.7531,209.813 13.0865,209.48 10.5,208.5C 13.3717,197.885 16.0383,187.218 18.5,176.5C 23.3222,175.935 27.8222,176.601 32,178.5C 34.5674,188.51 37.0674,198.51 39.5,208.5C 36.9135,209.48 34.2469,209.813 31.5,209.5 Z"/></g>
<g><path style="opacity:1" fill="#fc878c" d="M 43.5,176.5 C 50.9818,175.508 58.6484,175.175 66.5,175.5C 66.5,177.5 66.5,179.5 66.5,181.5C 61.8333,181.5 57.1667,181.5 52.5,181.5C 56.6344,180.515 60.9677,180.182 65.5,180.5C 65.5,179.167 65.5,177.833 65.5,176.5C 58.5,176.5 51.5,176.5 44.5,176.5C 44.1667,176.5 43.8333,176.5 43.5,176.5 Z"/></g>
<g><path style="opacity:1" fill="#fcfdfc" d="M 44.5,176.5 C 51.5,176.5 58.5,176.5 65.5,176.5C 65.5,177.833 65.5,179.167 65.5,180.5C 60.9677,180.182 56.6344,180.515 52.5,181.5C 51.5064,190.652 51.1731,199.985 51.5,209.5C 49.1667,209.5 46.8333,209.5 44.5,209.5C 44.5,198.5 44.5,187.5 44.5,176.5 Z"/></g>
<g><path style="opacity:1" fill="#fd1223" d="M 80.5,181.5 C 82.8568,181.337 85.1902,181.503 87.5,182C 88.8333,185.333 88.8333,188.667 87.5,192C 85.1902,192.497 82.8568,192.663 80.5,192.5C 80.5,188.833 80.5,185.167 80.5,181.5 Z"/></g>
<g><path style="opacity:1" fill="#fcf9f7" d="M 125.5,203.5 C 124.925,205.411 123.925,207.078 122.5,208.5C 114.64,211.883 107.473,210.883 101,205.5C 100.333,197.167 100.333,188.833 101,180.5C 102.637,178.19 104.804,176.69 107.5,176C 114.2,174.411 120.034,175.911 125,180.5C 125.5,188.159 125.666,195.826 125.5,203.5 Z"/></g>
<g><path style="opacity:1" fill="#fd1724" d="M 115.5,204.5 C 113.533,204.739 111.699,204.406 110,203.5C 109.5,196.174 109.334,188.841 109.5,181.5C 111.694,180.234 114.028,180.234 116.5,181.5C 116.833,185.333 117.167,189.167 117.5,193C 117.49,197.229 116.823,201.062 115.5,204.5 Z"/></g>
<g><path style="opacity:1" fill="#fdfdfc" d="M 175.5,176.5 C 175.5,177.833 175.5,179.167 175.5,180.5C 172.5,180.5 169.5,180.5 166.5,180.5C 166.5,190.167 166.5,199.833 166.5,209.5C 163.833,209.5 161.167,209.5 158.5,209.5C 158.5,199.833 158.5,190.167 158.5,180.5C 155.5,180.5 152.5,180.5 149.5,180.5C 149.5,179.167 149.5,177.833 149.5,176.5C 158.167,176.5 166.833,176.5 175.5,176.5 Z"/></g>
<g><path style="opacity:1" fill="#ffaaad" d="M 43.5,176.5 C 43.8333,176.5 44.1667,176.5 44.5,176.5C 44.5,187.5 44.5,198.5 44.5,209.5C 46.8333,209.5 49.1667,209.5 51.5,209.5C 51.1731,199.985 51.5064,190.652 52.5,181.5C 52.5,191.167 52.5,200.833 52.5,210.5C 49.5,210.5 46.5,210.5 43.5,210.5C 43.5,199.167 43.5,187.833 43.5,176.5 Z"/></g>
<g><path style="opacity:1" fill="#fb324a" d="M 109.5,181.5 C 109.334,188.841 109.5,196.174 110,203.5C 111.699,204.406 113.533,204.739 115.5,204.5C 113.44,205.811 111.274,205.811 109,204.5C 108.178,196.655 108.344,188.989 109.5,181.5 Z"/></g>
<g><path style="opacity:1" fill="#fb4e5e" d="M 149.5,180.5 C 152.5,180.5 155.5,180.5 158.5,180.5C 158.5,190.167 158.5,199.833 158.5,209.5C 157.506,200.348 157.173,191.015 157.5,181.5C 154.615,181.806 151.948,181.473 149.5,180.5 Z"/></g>
<g><path style="opacity:1" fill="#fc6e7a" d="M 175.5,180.5 C 173.052,181.473 170.385,181.806 167.5,181.5C 167.827,191.015 167.494,200.348 166.5,209.5C 166.5,199.833 166.5,190.167 166.5,180.5C 169.5,180.5 172.5,180.5 175.5,180.5 Z"/></g>
<g><path style="opacity:1" fill="#fef1ef" d="M 130.5,190.5 C 135.833,190.5 141.167,190.5 146.5,190.5C 146.5,192.167 146.5,193.833 146.5,195.5C 141.167,195.5 135.833,195.5 130.5,195.5C 130.5,193.833 130.5,192.167 130.5,190.5 Z"/></g>
<g><path style="opacity:1" fill="#fbf7f6" d="M 215.5,176.5 C 217.234,180.3 219.234,183.966 221.5,187.5C 223.898,184.429 225.898,181.095 227.5,177.5C 230.309,176.2 232.976,176.2 235.5,177.5C 232.591,182.314 229.925,187.314 227.5,192.5C 230.119,198.24 233.119,203.74 236.5,209C 233.5,209.667 230.5,209.667 227.5,209C 225.191,204.881 223.024,200.714 221,196.5C 218.473,200.896 215.973,205.229 213.5,209.5C 210.941,209.802 208.607,209.468 206.5,208.5C 209.488,203.194 212.488,197.861 215.5,192.5C 212.579,187.659 209.912,182.659 207.5,177.5C 210.086,176.52 212.753,176.187 215.5,176.5 Z"/></g>
<g><path style="opacity:1" fill="#fc262f" d="M 23.5,183.5 C 24.5862,183.62 25.2528,184.287 25.5,185.5C 26.7581,190.125 27.7581,194.792 28.5,199.5C 25.8333,199.5 23.1667,199.5 20.5,199.5C 21.8183,194.227 22.8183,188.893 23.5,183.5 Z"/></g>
<g><path style="opacity:1" fill="#fdf5f4" d="M 188.5,195.5 C 187.521,198.625 187.187,201.958 187.5,205.5C 192.5,205.5 197.5,205.5 202.5,205.5C 202.5,206.833 202.5,208.167 202.5,209.5C 194.833,209.5 187.167,209.5 179.5,209.5C 179.5,198.5 179.5,187.5 179.5,176.5C 187.167,176.5 194.833,176.5 202.5,176.5C 202.5,178.167 202.5,179.833 202.5,181.5C 197.833,181.5 193.167,181.5 188.5,181.5C 188.5,184.5 188.5,187.5 188.5,190.5C 192.167,190.5 195.833,190.5 199.5,190.5C 199.5,192.167 199.5,193.833 199.5,195.5C 195.833,195.5 192.167,195.5 188.5,195.5 Z"/></g>
<g><path style="opacity:1" fill="#f95360" d="M 19.5,204.5 C 22.9619,203.518 26.6286,203.185 30.5,203.5C 30.5172,205.565 30.8505,207.565 31.5,209.5C 29.744,208.448 29.0773,206.781 29.5,204.5C 26.1667,204.5 22.8333,204.5 19.5,204.5 Z"/></g>
<g><path style="opacity:1" fill="#fe828d" d="M 188.5,195.5 C 188.5,198.5 188.5,201.5 188.5,204.5C 193.363,204.181 198.03,204.514 202.5,205.5C 197.5,205.5 192.5,205.5 187.5,205.5C 187.187,201.958 187.521,198.625 188.5,195.5 Z"/></g>
<g><path style="opacity:1" fill="#fc626f" d="M 206.5,208.5 C 208.607,209.468 210.941,209.802 213.5,209.5C 210.976,210.8 208.309,210.8 205.5,209.5C 205.624,208.893 205.957,208.56 206.5,208.5 Z"/></g>
</svg>
