<svg width="22" height="22" viewBox="0 0 22 22" fill="none" xmlns="http://www.w3.org/2000/svg">
<g clip-path="url(#clip0_23_36)">
<path d="M0.462432 10.7053C0.461924 12.526 0.941373 14.3038 1.85304 15.8708L0.375244 21.2246L5.89703 19.788C7.42428 20.613 9.13546 21.0453 10.8744 21.0454H10.8789C16.6194 21.0454 21.2922 16.4104 21.2947 10.7135C21.2958 7.95292 20.2133 5.35705 18.2466 3.40407C16.2802 1.45125 13.665 0.375222 10.8785 0.373962C5.1374 0.373962 0.464887 5.00865 0.462517 10.7053" fill="url(#paint0_linear_23_36)"/>
<path d="M8.18361 6.22783C7.98164 5.78242 7.76908 5.77343 7.57702 5.76562C7.41974 5.7589 7.23995 5.75941 7.06032 5.75941C6.88053 5.75941 6.58841 5.82652 6.34149 6.09403C6.09431 6.3618 5.39783 7.00888 5.39783 8.32495C5.39783 9.64111 6.36392 10.913 6.4986 11.0917C6.63344 11.27 8.36365 14.0572 11.1039 15.1294C13.3813 16.0205 13.8447 15.8433 14.339 15.7986C14.8333 15.7541 15.9341 15.1517 16.1587 14.527C16.3834 13.9025 16.3834 13.3671 16.316 13.2552C16.2487 13.1438 16.0689 13.0768 15.7993 12.9431C15.5296 12.8093 14.2041 12.1621 13.9571 12.0729C13.7099 11.9837 13.5302 11.9391 13.3504 12.207C13.1706 12.4744 12.6543 13.0768 12.497 13.2552C12.3398 13.434 12.1824 13.4563 11.9129 13.3225C11.6431 13.1883 10.7749 12.9061 9.74478 11.9949C8.94333 11.2858 8.40225 10.4102 8.24498 10.1424C8.0877 9.87494 8.22813 9.72997 8.36332 9.59668C8.48445 9.47682 8.63301 9.28431 8.76794 9.12817C8.90236 8.97194 8.94722 8.86049 9.03712 8.68209C9.1271 8.50352 9.08207 8.34729 9.01477 8.21349C8.94722 8.07969 8.42333 6.75673 8.18361 6.22783Z" fill="white"/>
</g>
<defs>
<linearGradient id="paint0_linear_23_36" x1="1046.35" y1="2085.44" x2="1046.35" y2="0.373962" gradientUnits="userSpaceOnUse">
<stop stop-color="#1FAF38"/>
<stop offset="1" stop-color="#60D669"/>
</linearGradient>
<clipPath id="clip0_23_36">
<rect width="21.67" height="21.67" fill="white"/>
</clipPath>
</defs>
</svg>
